<svg width="400" height="300" viewBox="0 0 400 300" fill="none" xmlns="http://www.w3.org/2000/svg">
<path d="M72.3717 166.33H79.6997V186.382H92.5025V192.813H72.3749V166.33H72.3717ZM100.092 179.648V179.573C100.092 171.968 106.212 165.799 114.368 165.799C122.527 165.799 128.569 171.89 128.569 179.495V179.573C128.569 187.178 122.449 193.341 114.293 193.341C106.14 193.341 100.092 187.253 100.092 179.648ZM121.092 179.648V179.573C121.092 175.755 118.335 172.42 114.293 172.42C110.291 172.42 107.607 175.674 107.607 179.495V179.573C107.607 183.388 110.366 186.722 114.368 186.722C118.41 186.722 121.092 183.469 121.092 179.648ZM137.538 181.199V166.33H144.978V181.046C144.978 184.865 146.903 186.685 149.849 186.685C152.795 186.685 154.72 184.946 154.72 181.237V166.33H162.163V181.003C162.163 189.557 157.292 193.3 149.774 193.3C142.256 193.3 137.535 189.482 137.535 181.193M173.377 166.333H183.574C193.016 166.333 198.491 171.777 198.491 179.42V179.498C198.491 187.137 192.941 192.813 183.424 192.813H173.377V166.333ZM183.686 186.304C188.071 186.304 190.973 183.884 190.973 179.604V179.529C190.973 175.293 188.071 172.833 183.686 172.833H180.702V186.307L183.686 186.304ZM209.142 166.33H230.291V172.761H216.47V177.263H228.97V183.354H216.47V192.813H209.142V166.33ZM240.487 166.33H247.815V186.382H260.618V192.813H240.487V166.33ZM279.764 166.139H286.828L298.083 192.813H290.228L288.298 188.083H278.105L276.217 192.813H268.513L279.764 166.139ZM286.186 182.373L283.24 174.84L280.253 182.37L286.186 182.373ZM307.522 166.33H320.023C324.065 166.33 326.859 167.391 328.634 169.205C330.185 170.719 330.976 172.764 330.976 175.374V175.449C330.976 179.495 328.818 182.18 325.538 183.581L331.845 192.813H323.386L318.061 184.79H314.853V192.813H307.525L307.522 166.33ZM319.683 179.042C322.175 179.042 323.614 177.831 323.614 175.901V175.827C323.614 173.744 322.1 172.686 319.643 172.686H314.847V179.048L319.683 179.042ZM341.549 166.33H362.81V172.573H348.802V176.582H361.493V182.37H348.802V186.572H363V192.813H341.549V166.33ZM56.3301 182.751C55.3023 185.074 53.1441 186.722 50.2759 186.722C46.2709 186.722 43.5148 183.391 43.5148 179.573V179.495C43.5148 175.677 46.1931 172.42 50.198 172.42C53.2189 172.42 55.5172 174.278 56.4889 176.81H64.2123C62.9728 170.504 57.445 165.802 50.2759 165.802C42.1165 165.802 36 171.974 36 179.57V179.645C36 187.25 42.0417 193.344 50.2011 193.344C57.1771 193.344 62.6303 188.817 64.0691 182.751H56.3301Z" fill="white"/>
<path d="M313.209 152.596L314.009 149.827C314.962 146.53 314.607 143.486 313.01 141.248C311.54 139.187 309.089 137.973 306.115 137.832L249.759 137.118C249.584 137.114 249.413 137.07 249.259 136.988C249.105 136.906 248.972 136.789 248.871 136.646C248.773 136.498 248.71 136.329 248.689 136.152C248.667 135.975 248.687 135.796 248.746 135.628C248.843 135.352 249.018 135.109 249.251 134.931C249.483 134.753 249.763 134.647 250.054 134.626L306.931 133.902C313.676 133.593 320.982 128.108 323.539 121.42L326.781 112.932C326.914 112.573 326.944 112.183 326.868 111.808C323.187 95.2147 308.401 82.8049 290.724 82.8049C274.436 82.8049 260.609 93.3353 255.648 107.971C252.295 105.451 248.118 104.293 243.95 104.727C241.57 104.976 239.27 105.735 237.208 106.953C235.146 108.172 233.369 109.821 231.999 111.789C230.629 113.756 229.698 115.997 229.268 118.357C228.839 120.718 228.921 123.144 229.509 125.47C216.744 125.844 206.507 136.318 206.507 149.196C206.507 150.345 206.595 151.491 206.763 152.63C206.799 152.893 206.929 153.134 207.128 153.309C207.327 153.483 207.582 153.581 207.846 153.583L311.889 153.595H311.917C312.21 153.59 312.495 153.489 312.727 153.31C312.96 153.13 313.129 152.88 313.209 152.596Z" fill="#F6821F"/>
<path d="M331.982 113.547C331.462 113.547 330.942 113.559 330.425 113.587C330.341 113.593 330.258 113.611 330.179 113.64C330.043 113.687 329.92 113.766 329.822 113.87C329.723 113.974 329.651 114.101 329.612 114.24L327.395 121.907C326.445 125.201 326.797 128.245 328.397 130.48C329.864 132.544 332.315 133.758 335.289 133.896L347.304 134.62C347.473 134.626 347.638 134.671 347.787 134.751C347.936 134.832 348.063 134.946 348.161 135.085C348.261 135.234 348.325 135.404 348.347 135.582C348.369 135.76 348.349 135.94 348.288 136.109C348.19 136.385 348.014 136.626 347.782 136.803C347.55 136.98 347.271 137.086 346.98 137.108L334.498 137.832C327.722 138.144 320.419 143.627 317.862 150.314L316.959 152.674C316.901 152.823 316.899 152.988 316.954 153.139C317.008 153.289 317.115 153.415 317.254 153.492C317.348 153.545 317.448 153.576 317.553 153.579H360.537C360.786 153.582 361.03 153.503 361.23 153.353C361.431 153.204 361.577 152.993 361.645 152.752C362.408 150.032 362.792 147.22 362.788 144.395C362.785 127.358 348.995 113.55 331.985 113.55L331.982 113.547Z" fill="#FBAD41"/>
</svg>
