<svg width="400" height="300" viewBox="0 0 400 300" fill="none" xmlns="http://www.w3.org/2000/svg">
<g clip-path="url(#clip0_912_1593)">
<path d="M139.272 140.747C140.432 137.314 140.834 133.671 140.452 130.068C140.069 126.464 138.911 122.987 137.057 119.874C134.291 115.138 130.095 111.401 125.072 109.2C120.022 106.982 114.403 106.404 109.007 107.546C106.564 104.832 103.571 102.669 100.228 101.2C96.8747 99.727 93.2489 98.9772 89.5867 99C84.0789 98.9847 78.7053 100.7 74.2248 103.903C69.7736 107.083 66.452 111.599 64.7425 116.795C61.1544 117.519 57.7602 118.994 54.7829 121.123C51.8192 123.24 49.3426 125.966 47.519 129.119C44.7476 133.821 43.5629 139.29 44.1402 144.718C44.7175 150.145 47.0262 155.243 50.7247 159.257C49.5653 162.689 49.1627 166.331 49.5444 169.934C49.9261 173.536 51.0831 177.013 52.936 180.126C55.7015 184.862 59.8976 188.599 64.921 190.8C69.9711 193.018 75.5898 193.597 80.986 192.454C83.4277 195.168 86.4192 197.331 89.7616 198.8C93.113 200.271 96.7413 201.022 100.41 201C105.921 201.019 111.299 199.305 115.783 196.1C120.239 192.918 123.564 188.397 125.272 183.194C128.86 182.472 132.254 180.998 135.232 178.87C138.195 176.751 140.67 174.024 142.492 170.87C145.259 166.168 146.441 160.7 145.861 155.275C145.281 149.849 142.971 144.755 139.272 140.744V140.747ZM100.621 194.334C95.4772 194.334 91.4956 192.774 88.0167 189.908C88.1733 189.824 88.4502 189.674 88.6287 189.565L109.211 177.835C109.723 177.547 110.15 177.127 110.447 176.619C110.744 176.112 110.901 175.534 110.901 174.946V146.313L119.604 151.268C119.649 151.291 119.687 151.325 119.716 151.366C119.746 151.407 119.764 151.455 119.771 151.505V175.212C119.771 185.966 110.697 194.334 100.621 194.334ZM58.7973 176.79C56.5286 172.931 55.7085 168.39 56.4841 163.981C56.6371 164.072 56.903 164.236 57.0961 164.346L77.6782 176.076C78.1921 176.372 78.7751 176.529 79.3685 176.529C79.9619 176.529 80.5449 176.372 81.0588 176.076L106.187 161.759V171.668C106.19 171.718 106.18 171.769 106.159 171.815C106.137 171.861 106.104 171.9 106.063 171.93L85.259 183.788C80.7964 186.319 75.5199 187.001 70.5601 185.689C65.6172 184.392 61.3913 181.193 58.7973 176.79ZM53.3731 132.456C55.6494 128.568 59.2178 125.601 63.4565 124.074V148.233C63.4509 148.823 63.6051 149.402 63.9027 149.911C64.2003 150.42 64.6303 150.838 65.1468 151.122L90.2716 165.438L81.5725 170.393C81.5298 170.421 81.481 170.438 81.4303 170.443C81.3796 170.448 81.3284 170.441 81.281 170.422L60.4657 158.557C58.2737 157.311 56.349 155.645 54.8018 153.654C53.2547 151.663 52.1156 149.386 51.4497 146.955C50.7912 144.531 50.6219 142.001 50.9515 139.512C51.2811 137.023 52.1067 134.624 53.3731 132.456ZM124.857 148.871L99.7285 134.554L108.428 129.6C108.47 129.572 108.519 129.555 108.57 129.55C108.62 129.545 108.672 129.552 108.719 129.571L129.531 141.428C132.707 143.237 135.303 145.913 137.013 149.144C138.713 152.359 139.45 155.997 139.135 159.62C138.819 163.244 137.465 166.7 135.235 169.573C132.992 172.47 129.973 174.67 126.529 175.919V151.756C126.535 151.169 126.383 150.591 126.089 150.084C125.795 149.576 125.369 149.157 124.857 148.871ZM133.516 136.001C133.313 135.878 133.109 135.758 132.904 135.64L112.322 123.91C111.808 123.614 111.225 123.458 110.632 123.458C110.038 123.458 109.455 123.614 108.941 123.91L83.8128 138.226V128.31C83.8098 128.26 83.8196 128.209 83.8412 128.163C83.8629 128.118 83.8957 128.078 83.9367 128.048L104.745 116.205C107.938 114.39 111.579 113.509 115.249 113.664C118.92 113.819 122.473 115.004 125.502 117.083C128.511 119.148 130.868 122.03 132.296 125.389C133.716 128.74 134.139 132.42 133.516 136.001ZM79.0844 153.676L70.378 148.721C70.3324 148.699 70.2932 148.666 70.2639 148.624C70.2346 148.583 70.2162 148.535 70.2104 148.485V124.773C70.214 121.141 71.2668 117.586 73.2412 114.522C75.2273 111.45 78.0459 109.005 81.3685 107.473C84.7052 105.935 88.4071 105.365 92.052 105.829C95.6969 106.293 99.1382 107.771 101.983 110.096C101.777 110.205 101.573 110.318 101.371 110.435L80.7892 122.165C80.2766 122.454 79.8498 122.873 79.5522 123.381C79.2546 123.888 79.0969 124.465 79.0953 125.054L79.0844 153.676ZM83.8092 143.621L95 137.25L106.191 143.625V156.375L95 162.746L83.8092 156.371V143.621Z" fill="white"/>
</g>
<path d="M202.295 149.636C202.295 153.932 201.52 157.644 199.969 160.773C198.418 163.902 196.29 166.314 193.585 168.011C190.881 169.708 187.792 170.557 184.318 170.557C180.845 170.557 177.756 169.708 175.051 168.011C172.347 166.314 170.219 163.902 168.668 160.773C167.116 157.644 166.341 153.932 166.341 149.636C166.341 145.341 167.116 141.629 168.668 138.5C170.219 135.371 172.347 132.958 175.051 131.261C177.756 129.564 180.845 128.716 184.318 128.716C187.792 128.716 190.881 129.564 193.585 131.261C196.29 132.958 198.418 135.371 199.969 138.5C201.52 141.629 202.295 145.341 202.295 149.636ZM197.523 149.636C197.523 146.11 196.933 143.134 195.753 140.707C194.586 138.281 193.002 136.445 191 135.199C189.011 133.953 186.784 133.33 184.318 133.33C181.852 133.33 179.618 133.953 177.616 135.199C175.628 136.445 174.044 138.281 172.864 140.707C171.697 143.134 171.114 146.11 171.114 149.636C171.114 153.163 171.697 156.139 172.864 158.565C174.044 160.991 175.628 162.828 177.616 164.074C179.618 165.32 181.852 165.943 184.318 165.943C186.784 165.943 189.011 165.32 191 164.074C193.002 162.828 194.586 160.991 195.753 158.565C196.933 156.139 197.523 153.163 197.523 149.636ZM209.952 181.455V139.455H214.486V144.307H215.043C215.387 143.777 215.865 143.1 216.474 142.278C217.098 141.443 217.986 140.701 219.139 140.051C220.306 139.388 221.884 139.057 223.872 139.057C226.444 139.057 228.711 139.7 230.673 140.986C232.635 142.272 234.167 144.095 235.267 146.455C236.367 148.814 236.918 151.598 236.918 154.807C236.918 158.042 236.367 160.846 235.267 163.219C234.167 165.579 232.642 167.408 230.693 168.707C228.744 169.993 226.497 170.636 223.952 170.636C221.99 170.636 220.419 170.312 219.239 169.662C218.059 168.999 217.151 168.25 216.514 167.415C215.878 166.566 215.387 165.864 215.043 165.307H214.645V181.455H209.952ZM214.565 154.727C214.565 157.034 214.903 159.069 215.58 160.832C216.256 162.582 217.243 163.955 218.543 164.949C219.842 165.93 221.433 166.42 223.315 166.42C225.277 166.42 226.915 165.903 228.227 164.869C229.553 163.822 230.547 162.417 231.21 160.653C231.886 158.877 232.224 156.902 232.224 154.727C232.224 152.58 231.893 150.644 231.23 148.92C230.58 147.184 229.593 145.812 228.267 144.804C226.955 143.783 225.304 143.273 223.315 143.273C221.406 143.273 219.802 143.757 218.503 144.724C217.204 145.679 216.223 147.018 215.56 148.741C214.897 150.452 214.565 152.447 214.565 154.727ZM256.884 170.636C253.94 170.636 251.402 169.987 249.267 168.688C247.146 167.375 245.509 165.545 244.355 163.199C243.215 160.839 242.645 158.095 242.645 154.966C242.645 151.837 243.215 149.08 244.355 146.693C245.509 144.294 247.113 142.424 249.168 141.085C251.236 139.733 253.649 139.057 256.406 139.057C257.997 139.057 259.568 139.322 261.119 139.852C262.67 140.383 264.082 141.244 265.355 142.438C266.628 143.617 267.642 145.182 268.398 147.131C269.153 149.08 269.531 151.479 269.531 154.33V156.318H245.986V152.261H264.759C264.759 150.538 264.414 149 263.724 147.648C263.048 146.295 262.08 145.228 260.821 144.446C259.575 143.664 258.103 143.273 256.406 143.273C254.537 143.273 252.92 143.737 251.554 144.665C250.202 145.58 249.161 146.773 248.432 148.244C247.703 149.716 247.338 151.294 247.338 152.977V155.682C247.338 157.989 247.736 159.944 248.531 161.548C249.34 163.139 250.46 164.352 251.892 165.188C253.324 166.009 254.988 166.42 256.884 166.42C258.116 166.42 259.23 166.248 260.224 165.903C261.232 165.545 262.1 165.015 262.83 164.312C263.559 163.597 264.122 162.708 264.52 161.648L269.054 162.92C268.577 164.458 267.775 165.811 266.648 166.977C265.521 168.131 264.129 169.032 262.472 169.682C260.814 170.318 258.952 170.636 256.884 170.636ZM281.364 151.625V170H276.67V139.455H281.205V144.227H281.602C282.318 142.676 283.405 141.43 284.864 140.489C286.322 139.534 288.205 139.057 290.511 139.057C292.58 139.057 294.389 139.481 295.94 140.33C297.491 141.165 298.698 142.438 299.56 144.148C300.421 145.845 300.852 147.992 300.852 150.591V170H296.159V150.909C296.159 148.509 295.536 146.64 294.29 145.301C293.044 143.949 291.333 143.273 289.159 143.273C287.661 143.273 286.322 143.598 285.142 144.247C283.975 144.897 283.054 145.845 282.378 147.091C281.702 148.337 281.364 149.848 281.364 151.625ZM311.735 170H306.565L321.519 129.273H326.61L341.565 170H336.394L324.224 135.716H323.906L311.735 170ZM313.644 154.091H334.485V158.466H313.644V154.091ZM352.84 129.273V170H347.908V129.273H352.84Z" fill="white"/>
<defs>
<clipPath id="clip0_912_1593">
<rect width="102" height="102" fill="white" transform="translate(44 99)"/>
</clipPath>
</defs>
</svg>
