<svg width="400" height="300" viewBox="0 0 400 300" fill="none" xmlns="http://www.w3.org/2000/svg">
<path fill-rule="evenodd" clip-rule="evenodd" d="M110.339 169.189C111.004 177.757 111.004 181.774 111.004 186.158H91.2655C91.2655 185.203 91.2824 184.329 91.2996 183.443C91.3531 180.689 91.4088 177.818 90.9646 172.019C90.3774 163.529 86.7373 161.642 80.0441 161.642H74.1142H49V146.195H80.9835C89.4381 146.195 93.6653 143.612 93.6653 136.773C93.6653 130.76 89.4381 127.115 80.9835 127.115H49V112H84.5062C103.646 112 113.158 121.079 113.158 135.583C113.158 146.431 106.465 153.506 97.4231 154.685C105.056 156.218 109.518 160.581 110.339 169.189Z" fill="white"/>
<path d="M348.956 133.696H329.364L320.448 146.195L311.766 133.696H290.767L309.655 159.52L289.124 186.286H308.716L319.157 172.019L329.599 186.286H350.598L329.951 158.694L348.956 133.696Z" fill="url(#paint0_linear_912_1592)"/>
<path d="M348.956 133.696H329.364L320.448 146.195L311.766 133.696H290.767L309.655 159.52L289.124 186.286H308.716L319.157 172.019L329.599 186.286H350.598L329.951 158.694L348.956 133.696Z" fill="white"/>
<path d="M154.141 167.538C152.381 171.665 149.096 173.434 143.934 173.434C138.186 173.434 133.493 170.368 133.024 163.883H169.744V158.576C169.744 144.309 160.476 132.281 142.996 132.281C126.689 132.281 114.488 144.191 114.488 160.817C114.488 177.561 126.454 187.702 143.23 187.702C157.074 187.702 166.694 180.98 169.392 168.953L154.141 167.538ZM133.259 154.685C133.962 149.733 136.661 145.959 142.761 145.959C148.392 145.959 151.443 149.969 151.677 154.685H133.259Z" fill="url(#paint1_linear_912_1592)"/>
<path d="M154.141 167.538C152.381 171.665 149.096 173.434 143.934 173.434C138.186 173.434 133.493 170.368 133.024 163.883H169.744V158.576C169.744 144.309 160.476 132.281 142.996 132.281C126.689 132.281 114.488 144.191 114.488 160.817C114.488 177.561 126.454 187.702 143.23 187.702C157.074 187.702 166.694 180.98 169.392 168.953L154.141 167.538ZM133.259 154.685C133.962 149.733 136.661 145.959 142.761 145.959C148.392 145.959 151.443 149.969 151.677 154.685H133.259Z" fill="white"/>
<path d="M225.551 142.658C223.322 136.526 218.512 132.281 209.244 132.281C201.384 132.281 195.753 135.819 192.937 141.597V133.696H173.932V186.287H192.937V160.463C192.937 152.563 195.166 147.374 201.384 147.374C207.132 147.374 208.54 151.148 208.54 158.341V186.287H227.546V160.463C227.546 152.563 229.657 147.374 235.992 147.374C241.741 147.374 243.031 151.148 243.031 158.341V186.287H262.037V153.27C262.037 142.304 257.813 132.281 243.383 132.281C234.585 132.281 228.367 136.762 225.551 142.658Z" fill="url(#paint2_linear_912_1592)"/>
<path d="M225.551 142.658C223.322 136.526 218.512 132.281 209.244 132.281C201.384 132.281 195.753 135.819 192.937 141.597V133.696H173.932V186.287H192.937V160.463C192.937 152.563 195.166 147.374 201.384 147.374C207.132 147.374 208.54 151.148 208.54 158.341V186.287H227.546V160.463C227.546 152.563 229.657 147.374 235.992 147.374C241.741 147.374 243.031 151.148 243.031 158.341V186.287H262.037V153.27C262.037 142.304 257.813 132.281 243.383 132.281C234.585 132.281 228.367 136.762 225.551 142.658Z" fill="white"/>
<path d="M268.253 133.696V186.287H287.258V133.696H268.253ZM268.135 128.744H287.376V112H268.135V128.744Z" fill="url(#paint3_linear_912_1592)"/>
<path d="M268.253 133.696V186.287H287.258V133.696H268.253ZM268.135 128.744H287.376V112H268.135V128.744Z" fill="white"/>
<defs>
<linearGradient id="paint0_linear_912_1592" x1="319.861" y1="133.696" x2="319.861" y2="186.286" gradientUnits="userSpaceOnUse">
<stop/>
<stop offset="1" stop-opacity="0"/>
</linearGradient>
<linearGradient id="paint1_linear_912_1592" x1="142.116" y1="132.281" x2="142.116" y2="187.702" gradientUnits="userSpaceOnUse">
<stop/>
<stop offset="1" stop-opacity="0"/>
</linearGradient>
<linearGradient id="paint2_linear_912_1592" x1="217.984" y1="132.281" x2="217.984" y2="186.287" gradientUnits="userSpaceOnUse">
<stop/>
<stop offset="1" stop-opacity="0"/>
</linearGradient>
<linearGradient id="paint3_linear_912_1592" x1="277.756" y1="112" x2="277.756" y2="186.287" gradientUnits="userSpaceOnUse">
<stop/>
<stop offset="1" stop-opacity="0"/>
</linearGradient>
</defs>
</svg>
