<svg width="400" height="300" viewBox="0 0 400 300" fill="none" xmlns="http://www.w3.org/2000/svg">
<path d="M113.33 156.356C113.703 159.826 116.878 165.774 126.09 165.774C134.12 165.774 137.98 160.694 137.98 155.737C137.98 151.276 134.929 147.62 128.892 146.381L124.534 145.451C122.854 145.141 121.733 144.212 121.733 142.725C121.733 140.99 123.476 139.689 125.655 139.689C129.14 139.689 130.448 141.981 130.697 143.778L137.606 142.229C137.233 138.945 134.307 133.431 125.593 133.431C118.994 133.431 114.139 137.954 114.139 143.406C114.139 147.682 116.815 151.214 122.729 152.515L126.775 153.444C129.14 153.94 130.074 155.055 130.074 156.418C130.074 158.029 128.767 159.454 126.028 159.454C122.418 159.454 120.612 157.224 120.426 154.807L113.33 156.356Z" fill="white"/>
<path d="M164.436 164.845H172.342C172.217 163.791 172.03 161.685 172.03 159.33V134.36H163.751V152.081C163.751 155.613 161.635 158.091 157.963 158.091C154.103 158.091 152.36 155.365 152.36 151.957V134.36H144.081V153.63C144.081 160.26 148.314 165.65 155.721 165.65C158.958 165.65 162.507 164.411 164.188 161.561C164.188 162.8 164.312 164.225 164.436 164.845Z" fill="white"/>
<path d="M189.144 176.617V161.871C190.637 163.915 193.75 165.589 197.983 165.589C206.635 165.589 212.423 158.773 212.423 149.541C212.423 140.494 207.257 133.679 198.294 133.679C193.688 133.679 190.265 135.723 188.895 138.078V134.36H180.866V176.617H189.144ZM204.269 149.603C204.269 155.055 200.908 158.215 196.675 158.215C192.443 158.215 189.02 154.993 189.02 149.603C189.02 144.212 192.443 141.052 196.675 141.052C200.908 141.052 204.269 144.212 204.269 149.603Z" fill="white"/>
<path d="M217.112 156.542C217.112 161.313 221.095 165.712 227.632 165.712C232.174 165.712 235.1 163.606 236.656 161.189C236.656 162.366 236.781 164.039 236.968 164.845H244.562C244.375 163.792 244.189 161.623 244.189 160.012V145.017C244.189 138.883 240.578 133.431 230.868 133.431C222.651 133.431 218.231 138.697 217.734 143.468L225.079 145.017C225.328 142.353 227.32 140.061 230.93 140.061C234.416 140.061 236.097 141.857 236.097 144.026C236.097 145.079 235.537 145.947 233.794 146.195L226.262 147.31C221.158 148.054 217.112 151.09 217.112 156.542ZM229.374 159.578C226.698 159.578 225.39 157.843 225.39 156.047C225.39 153.692 227.07 152.515 229.187 152.205L236.097 151.152V152.515C236.097 157.905 232.86 159.578 229.374 159.578Z" fill="white"/>
<path d="M260.564 164.845V161.127C262.181 163.73 265.418 165.589 269.651 165.589C278.367 165.589 284.093 158.711 284.093 149.479C284.093 140.432 278.926 133.555 269.963 133.555C265.418 133.555 262.057 135.538 260.688 137.706V119.985H252.534V164.845H260.564ZM275.813 149.541C275.813 155.117 272.452 158.215 268.219 158.215C264.049 158.215 260.564 155.055 260.564 149.541C260.564 143.964 264.049 140.928 268.219 140.928C272.452 140.928 275.813 143.964 275.813 149.541Z" fill="white"/>
<path d="M288.78 156.542C288.78 161.313 292.764 165.712 299.299 165.712C303.843 165.712 306.769 163.606 308.325 161.189C308.325 162.366 308.45 164.039 308.636 164.845H316.23C316.044 163.792 315.857 161.623 315.857 160.012V145.017C315.857 138.883 312.247 133.431 302.536 133.431C294.32 133.431 289.901 138.697 289.403 143.468L296.747 145.017C296.997 142.353 298.989 140.061 302.598 140.061C306.085 140.061 307.765 141.857 307.765 144.026C307.765 145.079 307.205 145.947 305.462 146.195L297.931 147.31C292.826 148.054 288.78 151.09 288.78 156.542ZM301.043 159.578C298.366 159.578 297.058 157.843 297.058 156.047C297.058 153.692 298.739 152.515 300.856 152.205L307.765 151.152V152.515C307.765 157.905 304.528 159.578 301.043 159.578Z" fill="white"/>
<path d="M321.588 156.356C321.96 159.826 325.136 165.774 334.348 165.774C342.378 165.774 346.236 160.694 346.236 155.737C346.236 151.276 343.187 147.62 337.149 146.381L332.791 145.451C331.111 145.141 329.991 144.212 329.991 142.725C329.991 140.99 331.733 139.689 333.912 139.689C337.399 139.689 338.705 141.981 338.955 143.778L345.864 142.229C345.49 138.945 342.565 133.431 333.85 133.431C327.252 133.431 322.397 137.954 322.397 143.406C322.397 147.682 325.073 151.214 330.987 152.515L335.033 153.444C337.399 153.94 338.332 155.055 338.332 156.418C338.332 158.029 337.025 159.454 334.286 159.454C330.675 159.454 328.871 157.224 328.684 154.807L321.588 156.356Z" fill="white"/>
<path d="M358.81 146.133C358.997 143.345 361.362 140.123 365.657 140.123C370.387 140.123 372.38 143.097 372.505 146.133H358.81ZM373.314 154.064C372.318 156.79 370.201 158.711 366.342 158.711C362.233 158.711 358.81 155.799 358.624 151.771H380.534C380.534 151.647 380.658 150.408 380.658 149.231C380.658 139.441 374.994 133.431 365.533 133.431C357.69 133.431 350.469 139.751 350.469 149.479C350.469 159.764 357.876 165.774 366.28 165.774C373.811 165.774 378.667 161.375 380.223 156.108L373.314 154.064Z" fill="white"/>
<path d="M58.6939 183.318C56.9123 185.548 53.2998 184.326 53.2569 181.478L52.6292 139.818H80.8039C85.9071 139.818 88.7533 145.678 85.58 149.652L58.6939 183.318Z" fill="url(#paint0_linear_912_1589)"/>
<path d="M58.6939 183.318C56.9123 185.548 53.2998 184.326 53.2569 181.478L52.6292 139.818H80.8039C85.9071 139.818 88.7533 145.678 85.58 149.652L58.6939 183.318Z" fill="url(#paint1_linear_912_1589)" fill-opacity="0.2"/>
<path d="M47.2354 116.283C49.017 114.052 52.6296 115.274 52.6725 118.123L52.9476 159.783H25.1254C20.0221 159.783 17.1758 153.923 20.3493 149.949L47.2354 116.283Z" fill="#3ECF8E"/>
<defs>
<linearGradient id="paint0_linear_912_1589" x1="52.6292" y1="149.055" x2="77.6264" y2="159.599" gradientUnits="userSpaceOnUse">
<stop stop-color="#249361"/>
<stop offset="1" stop-color="#3ECF8E"/>
</linearGradient>
<linearGradient id="paint1_linear_912_1589" x1="41.5274" y1="133.942" x2="52.8446" y2="155.37" gradientUnits="userSpaceOnUse">
<stop/>
<stop offset="1" stop-opacity="0"/>
</linearGradient>
</defs>
</svg>
