<svg width="400" height="300" viewBox="0 0 400 300" fill="none" xmlns="http://www.w3.org/2000/svg">
<g clip-path="url(#clip0_912_1590)">
<path d="M121.762 113.099C112.614 99.9415 94.5461 96.0417 81.4832 104.405L58.5458 119.1C55.4455 121.059 52.7862 123.646 50.7378 126.697C48.6895 129.747 47.2972 133.194 46.6501 136.816C45.5559 142.917 46.518 149.21 49.3839 154.699C47.4198 157.693 46.0801 161.056 45.4459 164.584C44.7925 168.279 44.8798 172.068 45.7027 175.728C46.5256 179.389 48.0675 182.847 50.2379 185.901C59.3858 199.06 77.4546 202.961 90.5158 194.594L113.458 179.9C116.558 177.941 119.216 175.353 121.264 172.302C123.311 169.252 124.703 165.805 125.349 162.183C126.445 156.083 125.485 149.79 122.622 144.3C124.585 141.306 125.924 137.944 126.557 134.416C127.212 130.721 127.125 126.932 126.302 123.271C125.479 119.611 123.937 116.152 121.766 113.099" fill="#FF3E00"/>
<path d="M79.2419 187.139C75.6314 188.083 71.82 187.89 68.3221 186.587C64.8243 185.284 61.8086 182.933 59.6822 179.853C58.3771 178.017 57.45 175.938 56.9552 173.737C56.4604 171.536 56.4078 169.258 56.8006 167.036C56.9335 166.307 57.1166 165.588 57.3486 164.884L57.7805 163.558L58.9565 164.425C61.67 166.43 64.7042 167.955 67.9284 168.933L68.7808 169.193L68.7025 170.049C68.599 171.265 68.9271 172.478 69.6287 173.474C70.269 174.402 71.1775 175.111 72.2315 175.504C73.2855 175.897 74.4341 175.955 75.522 175.67C76.0198 175.537 76.4944 175.329 76.9294 175.052L99.8712 160.356C100.433 160 100.914 159.532 101.286 158.979C101.657 158.426 101.909 157.802 102.027 157.146C102.145 156.476 102.129 155.79 101.979 155.126C101.83 154.463 101.551 153.836 101.158 153.282C100.518 152.354 99.6092 151.645 98.5553 151.252C97.5014 150.859 96.3528 150.8 95.2647 151.084C94.767 151.217 94.2924 151.426 93.8573 151.703L85.1027 157.311C83.6619 158.231 82.0898 158.924 80.4408 159.367C76.8303 160.311 73.0188 160.118 69.5209 158.815C66.0231 157.512 63.0074 155.161 60.8811 152.081C59.5757 150.245 58.6483 148.166 58.1533 145.965C57.6583 143.764 57.6057 141.486 57.9986 139.264C58.3885 137.086 59.2265 135.014 60.4589 133.179C61.6913 131.345 63.2911 129.79 65.1559 128.613L88.1004 113.919C89.5407 112.998 91.1129 112.304 92.7622 111.861C96.3727 110.917 100.184 111.11 103.682 112.413C107.18 113.716 110.196 116.067 112.322 119.147C113.627 120.983 114.554 123.062 115.049 125.263C115.544 127.464 115.597 129.742 115.204 131.964C115.07 132.693 114.887 133.412 114.656 134.116L114.224 135.442L113.048 134.577C110.335 132.571 107.301 131.047 104.077 130.069L103.223 129.809L103.303 128.953C103.406 127.737 103.078 126.522 102.377 125.525C101.737 124.597 100.828 123.888 99.7743 123.495C98.7203 123.103 97.5718 123.044 96.4838 123.329C95.9861 123.462 95.5115 123.67 95.0765 123.947L72.1285 138.644C71.5672 138.999 71.0856 139.468 70.7147 140.02C70.3438 140.573 70.0917 141.197 69.9744 141.853C69.8562 142.523 69.8719 143.21 70.0209 143.873C70.1698 144.537 70.4488 145.164 70.8417 145.718C71.4821 146.646 72.3906 147.355 73.4445 147.748C74.4984 148.141 75.6469 148.2 76.735 147.916C77.2326 147.783 77.7072 147.574 78.1424 147.297L86.8962 141.691C88.3363 140.77 89.9085 140.076 91.5581 139.634C95.1684 138.69 98.9798 138.883 102.477 140.186C105.975 141.489 108.991 143.84 111.117 146.92C112.422 148.756 113.35 150.835 113.845 153.036C114.34 155.237 114.392 157.515 113.999 159.737C113.61 161.915 112.773 163.987 111.542 165.822C110.311 167.657 108.712 169.213 106.848 170.392L83.9038 185.081C82.4635 186.002 80.8913 186.696 79.2419 187.139Z" fill="white"/>
</g>
<path d="M174.318 139.818C174.114 138.091 173.284 136.75 171.83 135.795C170.375 134.841 168.591 134.364 166.477 134.364C164.932 134.364 163.58 134.614 162.42 135.114C161.273 135.614 160.375 136.301 159.727 137.176C159.091 138.051 158.773 139.045 158.773 140.159C158.773 141.091 158.994 141.892 159.438 142.562C159.892 143.222 160.472 143.773 161.176 144.216C161.881 144.648 162.619 145.006 163.392 145.29C164.165 145.562 164.875 145.784 165.523 145.955L169.068 146.909C169.977 147.148 170.989 147.477 172.102 147.898C173.227 148.318 174.301 148.892 175.324 149.619C176.358 150.335 177.21 151.256 177.881 152.381C178.551 153.506 178.886 154.886 178.886 156.523C178.886 158.409 178.392 160.114 177.403 161.636C176.426 163.159 174.994 164.369 173.108 165.267C171.233 166.165 168.955 166.614 166.273 166.614C163.773 166.614 161.608 166.21 159.778 165.403C157.96 164.597 156.528 163.472 155.483 162.028C154.449 160.585 153.864 158.909 153.727 157H158.091C158.205 158.318 158.648 159.409 159.42 160.273C160.205 161.125 161.193 161.761 162.386 162.182C163.591 162.591 164.886 162.795 166.273 162.795C167.886 162.795 169.335 162.534 170.619 162.011C171.903 161.477 172.92 160.739 173.67 159.795C174.42 158.841 174.795 157.727 174.795 156.455C174.795 155.295 174.472 154.352 173.824 153.625C173.176 152.898 172.324 152.307 171.267 151.852C170.21 151.398 169.068 151 167.841 150.659L163.545 149.432C160.818 148.648 158.659 147.528 157.068 146.074C155.477 144.619 154.682 142.716 154.682 140.364C154.682 138.409 155.21 136.705 156.267 135.25C157.335 133.784 158.767 132.648 160.562 131.841C162.369 131.023 164.386 130.614 166.614 130.614C168.864 130.614 170.864 131.017 172.614 131.824C174.364 132.619 175.75 133.71 176.773 135.097C177.807 136.483 178.352 138.057 178.409 139.818H174.318ZM206.7 139.818L197.018 166H192.928L183.246 139.818H187.609L194.837 160.682H195.109L202.337 139.818H206.7ZM222.05 166.545C219.527 166.545 217.351 165.989 215.521 164.875C213.703 163.75 212.3 162.182 211.311 160.17C210.334 158.148 209.845 155.795 209.845 153.114C209.845 150.432 210.334 148.068 211.311 146.023C212.3 143.966 213.675 142.364 215.436 141.216C217.209 140.057 219.277 139.477 221.641 139.477C223.004 139.477 224.351 139.705 225.68 140.159C227.01 140.614 228.22 141.352 229.311 142.375C230.402 143.386 231.271 144.727 231.919 146.398C232.567 148.068 232.891 150.125 232.891 152.568V154.273H212.709V150.795H228.8C228.8 149.318 228.504 148 227.913 146.841C227.334 145.682 226.504 144.767 225.425 144.097C224.357 143.426 223.095 143.091 221.641 143.091C220.038 143.091 218.652 143.489 217.482 144.284C216.322 145.068 215.43 146.091 214.805 147.352C214.18 148.614 213.868 149.966 213.868 151.409V153.727C213.868 155.705 214.209 157.381 214.891 158.756C215.584 160.119 216.544 161.159 217.771 161.875C218.999 162.58 220.425 162.932 222.05 162.932C223.107 162.932 224.061 162.784 224.913 162.489C225.777 162.182 226.521 161.727 227.146 161.125C227.771 160.511 228.254 159.75 228.595 158.841L232.482 159.932C232.072 161.25 231.385 162.409 230.419 163.409C229.453 164.398 228.26 165.17 226.839 165.727C225.419 166.273 223.822 166.545 222.05 166.545ZM243.033 131.091V166H239.01V131.091H243.033ZM261.787 139.818V143.227H248.219V139.818H261.787ZM252.173 133.545H256.196V158.5C256.196 159.636 256.361 160.489 256.69 161.057C257.031 161.614 257.463 161.989 257.986 162.182C258.52 162.364 259.082 162.455 259.673 162.455C260.116 162.455 260.48 162.432 260.764 162.386C261.048 162.33 261.276 162.284 261.446 162.25L262.264 165.864C261.991 165.966 261.611 166.068 261.122 166.17C260.634 166.284 260.014 166.341 259.264 166.341C258.128 166.341 257.014 166.097 255.923 165.608C254.844 165.119 253.946 164.375 253.23 163.375C252.526 162.375 252.173 161.114 252.173 159.591V133.545ZM278.534 166.545C276.011 166.545 273.835 165.989 272.006 164.875C270.188 163.75 268.784 162.182 267.795 160.17C266.818 158.148 266.33 155.795 266.33 153.114C266.33 150.432 266.818 148.068 267.795 146.023C268.784 143.966 270.159 142.364 271.92 141.216C273.693 140.057 275.761 139.477 278.125 139.477C279.489 139.477 280.835 139.705 282.165 140.159C283.494 140.614 284.705 141.352 285.795 142.375C286.886 143.386 287.756 144.727 288.403 146.398C289.051 148.068 289.375 150.125 289.375 152.568V154.273H269.193V150.795H285.284C285.284 149.318 284.989 148 284.398 146.841C283.818 145.682 282.989 144.767 281.909 144.097C280.841 143.426 279.58 143.091 278.125 143.091C276.523 143.091 275.136 143.489 273.966 144.284C272.807 145.068 271.915 146.091 271.29 147.352C270.665 148.614 270.352 149.966 270.352 151.409V153.727C270.352 155.705 270.693 157.381 271.375 158.756C272.068 160.119 273.028 161.159 274.256 161.875C275.483 162.58 276.909 162.932 278.534 162.932C279.591 162.932 280.545 162.784 281.398 162.489C282.261 162.182 283.006 161.727 283.631 161.125C284.256 160.511 284.739 159.75 285.08 158.841L288.966 159.932C288.557 161.25 287.869 162.409 286.903 163.409C285.938 164.398 284.744 165.17 283.324 165.727C281.903 166.273 280.307 166.545 278.534 166.545ZM296.04 166V131.091H300.267V148.409H300.676L316.358 131.091H321.881L307.222 146.841L321.881 166H316.767L304.631 149.773L300.267 154.682V166H296.04ZM328.447 166V139.818H332.47V166H328.447ZM330.493 135.455C329.709 135.455 329.033 135.188 328.464 134.653C327.908 134.119 327.629 133.477 327.629 132.727C327.629 131.977 327.908 131.335 328.464 130.801C329.033 130.267 329.709 130 330.493 130C331.277 130 331.947 130.267 332.504 130.801C333.072 131.335 333.357 131.977 333.357 132.727C333.357 133.477 333.072 134.119 332.504 134.653C331.947 135.188 331.277 135.455 330.493 135.455ZM351.224 139.818V143.227H337.656V139.818H351.224ZM341.611 133.545H345.634V158.5C345.634 159.636 345.798 160.489 346.128 161.057C346.469 161.614 346.901 161.989 347.423 162.182C347.957 162.364 348.52 162.455 349.111 162.455C349.554 162.455 349.918 162.432 350.202 162.386C350.486 162.33 350.713 162.284 350.884 162.25L351.702 165.864C351.429 165.966 351.048 166.068 350.56 166.17C350.071 166.284 349.452 166.341 348.702 166.341C347.565 166.341 346.452 166.097 345.361 165.608C344.281 165.119 343.384 164.375 342.668 163.375C341.963 162.375 341.611 161.114 341.611 159.591V133.545Z" fill="white"/>
<defs>
<clipPath id="clip0_912_1590">
<rect width="82" height="99" fill="white" transform="translate(45 100)"/>
</clipPath>
</defs>
</svg>
