<svg width="400" height="300" viewBox="0 0 400 300" fill="none" xmlns="http://www.w3.org/2000/svg">
<g clip-path="url(#clip0_912_1588)">
<path d="M146.481 120.308H186.781V128.933H171.525V170.909H161.737V128.933H146.481V120.308Z" fill="white"/>
<path d="M192.566 128.358V119.158H201.778V128.358H192.566ZM192.566 170.909V132.958H201.778V170.909H192.566Z" fill="white"/>
<path d="M218.504 132.958V134.396C218.504 135.905 218.144 137.055 217.496 138.349C217.208 139.067 216.705 139.93 217.424 140.289C218.144 140.649 218.576 139.714 218.72 139.427C221.022 135.402 224.837 132.383 230.737 132.383C240.597 132.383 247.289 141.008 247.289 151.933C247.289 162.859 240.597 171.483 230.737 171.483C224.98 171.483 221.022 168.537 218.72 164.368C218.576 164.152 218.288 163.433 217.64 163.649C216.849 163.937 217.136 164.655 217.496 165.374C218.144 166.668 218.504 167.818 218.504 169.255V184.709H209.292V132.958H218.504ZM228.578 163.146C235.055 163.146 238.078 157.971 238.078 151.933C238.078 145.896 235.055 140.721 228.578 140.721C222.534 140.721 218.504 145.896 218.504 151.933C218.504 157.971 222.534 163.146 228.578 163.146Z" fill="white"/>
<path d="M275.541 141.008H265.178V158.331C265.178 162.499 265.25 162.859 269.136 162.859H275.541V170.909H267.193C259.565 170.909 255.967 168.393 255.967 159.265V141.008H249.059V132.958H255.967V122.608H265.178V132.958H275.541V141.008Z" fill="white"/>
<path d="M308.371 132.958H317.583V170.909H308.371V169.255C308.371 167.818 308.731 166.668 309.379 165.374C309.738 164.655 310.026 163.937 309.235 163.649C308.587 163.433 308.299 164.152 308.155 164.368C305.493 168.321 301.894 171.483 296.137 171.483C286.278 171.483 279.586 162.859 279.586 151.933C279.586 141.008 286.278 132.383 296.137 132.383C302.038 132.383 306.068 135.258 308.155 139.427C308.299 139.714 308.731 140.649 309.45 140.289C310.17 139.93 309.738 139.068 309.379 138.349C308.731 137.055 308.371 135.905 308.371 134.396V132.958ZM298.296 163.146C304.341 163.146 308.371 157.971 308.371 151.933C308.371 145.896 304.341 140.721 298.296 140.721C291.819 140.721 288.797 145.896 288.797 151.933C288.797 157.971 291.819 163.146 298.296 163.146Z" fill="white"/>
<path d="M334.32 132.958V134.396C334.32 135.905 333.96 137.055 333.312 138.349C333.025 139.067 332.521 139.93 333.241 140.289C333.96 140.649 334.392 139.714 334.536 139.427C336.839 135.402 340.653 132.383 346.554 132.383C356.413 132.383 363.106 141.008 363.106 151.933C363.106 162.859 356.413 171.483 346.554 171.483C340.797 171.483 336.839 168.537 334.536 164.368C334.392 164.152 334.104 163.433 333.456 163.649C332.665 163.937 332.953 164.655 333.312 165.374C333.96 166.668 334.32 167.818 334.32 169.255V184.709H325.109V132.958H334.32ZM344.395 163.146C350.872 163.146 353.894 157.971 353.894 151.933C353.894 145.896 350.872 140.721 344.395 140.721C338.35 140.721 334.32 145.896 334.32 151.933C334.32 157.971 338.35 163.146 344.395 163.146Z" fill="white"/>
<path d="M76.0233 111C68.8311 111 62.093 112.942 56.3062 116.33C55.1404 117.013 54.6292 118.529 55.6193 119.448C56.4904 120.256 57.6575 120.75 58.9401 120.75H93.1063C94.389 120.75 95.5561 120.256 96.4273 119.448C97.4175 118.529 96.906 117.013 95.7404 116.33C89.9536 112.942 83.2155 111 76.0233 111Z" fill="white"/>
<path d="M115.071 150C115.071 147.308 112.885 145.125 110.19 145.125H41.857C39.1613 145.125 36.9761 147.308 36.9761 150C36.9761 152.693 39.1613 154.875 41.857 154.875H110.19C112.885 154.875 115.071 152.693 115.071 150Z" fill="white"/>
<path d="M96.4273 180.552C97.4175 181.471 96.906 182.987 95.7404 183.67C89.9536 187.058 83.2155 189 76.0233 189C68.8311 189 62.0929 187.058 56.3062 183.67C55.1405 182.987 54.6292 181.471 55.6193 180.552C56.4904 179.744 57.6575 179.25 58.9402 179.25H93.1063C94.389 179.25 95.5561 179.744 96.4273 180.552Z" fill="white"/>
<path d="M41.8572 132.938C41.8572 130.245 44.0424 128.062 46.7381 128.062H105.309C108.005 128.062 110.19 130.245 110.19 132.938C110.19 135.63 108.005 137.813 105.309 137.813H46.7381C44.0424 137.813 41.8572 135.63 41.8572 132.938Z" fill="white"/>
<path d="M41.8572 167.063C41.8572 164.37 44.0424 162.188 46.7381 162.188H105.309C108.005 162.188 110.19 164.37 110.19 167.063C110.19 169.755 108.005 171.938 105.309 171.938H46.7381C44.0424 171.938 41.8572 169.755 41.8572 167.063Z" fill="white"/>
</g>
<defs>
<clipPath id="clip0_912_1588">
<rect width="328" height="78" fill="white" transform="translate(36 111)"/>
</clipPath>
</defs>
</svg>
